<!-- WavyBackground.svg -->

<svg width="100%" height="100%" id="svg" viewBox="0 0 1440 590" xmlns="http://www.w3.org/2000/svg"
  preserveAspectRatio="none"
  class="transition duration-300 ease-in-out delay-150">
  <defs>
    <linearGradient id="gradient" x1="8%" y1="76%" x2="92%" y2="24%">
      <stop offset="5%" stop-color="#ffffff"></stop>
      <stop offset="95%" stop-color="#a5a0fd"></stop>
    </linearGradient>
  </defs>
  <path
    d="M 0,600 L 0,510 C 82.70559945036072,502.68155273102025 165.41119890072144,495.36310546204055 227,471 C 288.58880109927856,446.63689453795945 329.060803847475,405.2291308828581 386,396 C 442.939196152525,386.7708691171419 516.3455857093784,409.720371006527 595,384 C 673.6544142906216,358.279628993473 757.556853315012,283.889385091034 826,258 C 894.443146684988,232.110614908966 947.4270010305738,254.72208862933704 1016,231 C 1084.5729989694262,207.27791137066296 1168.7351425626932,137.222260391618 1242,101 C 1315.2648574373068,64.777739608382 1377.6324287186535,62.388869804191 1440,60 L 1440,600 L 0,600 Z"
    stroke="none" stroke-width="0" fill="url(#gradient)" fill-opacity="0.4"
    class="transition-all duration-300 ease-in-out delay-150 path-1"></path>
  <defs>
    <linearGradient id="gradient" x1="8%" y1="76%" x2="92%" y2="24%">
      <stop offset="5%" stop-color="#ffffff"></stop>
      <stop offset="95%" stop-color="#a5a0fd"></stop>
    </linearGradient>
  </defs>
  <path
    d="M 0,600 L 0,630 C 61.81243558914461,652.725523874957 123.62487117828923,675.4510477499141 184,658 C 244.37512882171077,640.5489522500859 303.31295087598767,582.9213328753007 379,542 C 454.68704912401233,501.07866712469934 547.1233253177602,476.8636207488835 617,465 C 686.8766746822398,453.1363792511165 734.1937478529717,453.6241841291652 802,428 C 869.8062521470283,402.3758158708348 958.1016832703538,350.6396427344555 1042,319 C 1125.8983167296462,287.3603572655445 1205.3995190656133,275.8172449330127 1271,256 C 1336.6004809343867,236.18275506698728 1388.3002404671934,208.09137753349364 1440,180 L 1440,600 L 0,600 Z"
    stroke="none" stroke-width="0" fill="url(#gradient)" fill-opacity="0.53"
    class="transition-all duration-300 ease-in-out delay-150 path-2"></path>
  <defs>
    <linearGradient id="gradient" x1="8%" y1="76%" x2="92%" y2="24%">
      <stop offset="5%" stop-color="#ffffff"></stop>
      <stop offset="95%" stop-color="#a5a0fd"></stop>
    </linearGradient>
  </defs>
  <path
    d="M 0,600 L 0,750 C 71.92923394022674,733.832360013741 143.85846788045347,717.664720027482 213,705 C 282.1415321195465,692.335279972518 348.4953624184129,683.1734799038131 422,678 C 495.5046375815871,672.8265200961869 576.1600824458949,671.6413603572655 643,636 C 709.8399175541051,600.3586396427345 762.8643077980076,530.2610786671247 825,488 C 887.1356922019924,445.7389213328753 958.3826863620748,431.3143249742357 1029,408 C 1099.6173136379252,384.6856750257643 1169.604946753693,352.48162143593265 1238,333 C 1306.395053246307,313.51837856406735 1373.1975266231534,306.7591892820337 1440,300 L 1440,600 L 0,600 Z"
    stroke="none" stroke-width="0" fill="url(#gradient)" fill-opacity="1"
    class="transition-all duration-300 ease-in-out delay-150 path-3"></path>
</svg>