<svg color="#a5a0fd" width="64" height="64" viewBox="0 0 64 64" fill="none" xmlns="http://www.w3.org/2000/svg">
  <!-- Ticket Shape -->
  <path d="M12 20C12 16.6863 14.6863 14 18 14H46C49.3137 14 52 16.6863 52 20V24C49.7909 24 48 25.7909 48 28C48 30.2091 49.7909 32 52 32V44C52 47.3137 49.3137 50 46 50H18C14.6863 50 12 47.3137 12 44V40C14.2091 40 16 38.2091 16 36C16 33.7909 14.2091 32 12 32V20Z" 
        fill="currentColor" 
        stroke="currentColor" 
        stroke-width="2"/>
  
  <!-- Perforated Line (Dashed) -->
  <path d="M22 20V44" stroke="white" stroke-width="1.5" stroke-dasharray="4,4" opacity="0.6"/>
  
  <!-- Small Circle Cutouts (Tear-off effect) -->
  <circle cx="10" cy="32" r="3" fill="white" opacity="0.3"/>
  <circle cx="54" cy="32" r="3" fill="white" opacity="0.3"/>
</svg>